<svg xmlns="http://www.w3.org/2000/svg" xmlns:svg="http://www.w3.org/2000/svg" id="Layer_1" width="740" height="60" x="0" y="0" enable-background="new 0 0 100 100" version="1.1" viewBox="0 0 740 60" xml:space="preserve"><metadata id="metadata51"/><g id="g3285" transform="matrix(0.84510875,0,0,0.84510875,2.4666349,3.9025275)"><path id="path3147" d="m 19.02918,27.70898 0,-1.42397 1.52567,0 1.52569,0 0,-4.78047 0,-4.78046 -1.6274,0 -1.62738,0 0,1.52568 0,1.52568 -1.52567,0 -1.52569,0 0,-3.05136 0,-3.05135 7.83182,0 7.83182,0 0,3.05135 0,3.05136 -1.52569,0 -1.52567,0 0,-1.52568 0,-1.52568 -1.62739,0 -1.62739,0 0,4.78046 0,4.78047 1.52568,0 1.52567,0 0,1.42397 0,1.42396 -4.57703,0 -4.57704,0 0,-1.42396 z" style="fill:#464646;fill-opacity:1;stroke-width:20;stroke-miterlimit:4;stroke-dasharray:none"/><path id="path3149" d="m 19.64356,39.48975 0,-5.51027 1.35498,0 1.35497,0 0,4.15529 0,4.15527 12.64649,0 12.6465,0 0,-9.8462 0,-9.84619 -5.60059,0 -5.60059,0 0,-1.26465 0,-1.26465 6.95558,0 6.95556,0 0,12.46582 0,12.46583 L 35,45 l -15.35644,0 0,-5.51025 z" style="fill:#464646;fill-opacity:1;stroke-width:20;stroke-miterlimit:4;stroke-dasharray:none"/></g><path id="path6172" style="fill:#bbb;fill-opacity:1;stroke-width:20;stroke-miterlimit:4;stroke-dasharray:none"/><path id="path6178" style="fill:#bbb;fill-opacity:1;stroke-width:20;stroke-miterlimit:4;stroke-dasharray:none"/><path id="path6184" style="fill:#bbb;fill-opacity:1;stroke-width:20;stroke-miterlimit:4;stroke-dasharray:none"/><path id="path6186" style="fill:#bbb;fill-opacity:1;stroke-width:20;stroke-miterlimit:4;stroke-dasharray:none"/><path id="path6270" style="fill:#bbb;fill-opacity:1;stroke-width:20;stroke-miterlimit:4;stroke-dasharray:none"/><path id="path6288" style="fill:#bbb;fill-opacity:1;stroke-width:20;stroke-miterlimit:4;stroke-dasharray:none"/><path id="path6682" style="fill:#bbb;fill-opacity:1;stroke-width:20;stroke-miterlimit:4;stroke-dasharray:none"/><path id="path6684" style="fill:#bbb;fill-opacity:1;stroke-width:20;stroke-miterlimit:4;stroke-dasharray:none"/><g id="g3192" transform="matrix(0.27873303,0,0,0.27873303,128.9627,14.868054)" style="fill:#464646;fill-opacity:1"><g id="g3194" style="fill:#464646;fill-opacity:1"><rect style="fill:#464646;fill-opacity:1;fill-rule:evenodd" id="rect3196" width="20.32" height="20.318" x="-114.388" y="10.951" clip-rule="evenodd"/><rect style="fill:#464646;fill-opacity:1;fill-rule:evenodd" id="rect3198" width="20.32" height="20.318" x="-114.388" y="36.35" clip-rule="evenodd"/><rect style="fill:#464646;fill-opacity:1;fill-rule:evenodd" id="rect3200" width="20.32" height="20.319" x="-114.388" y="61.748" clip-rule="evenodd"/><rect style="fill:#464646;fill-opacity:1;fill-rule:evenodd" id="rect3202" width="20.318" height="20.318" x="-139.785" y="10.951" clip-rule="evenodd"/><rect style="fill:#464646;fill-opacity:1;fill-rule:evenodd" id="rect3204" width="20.318" height="20.318" x="-139.785" y="36.35" clip-rule="evenodd"/><rect style="fill:#464646;fill-opacity:1;fill-rule:evenodd" id="rect3206" width="20.318" height="20.319" x="-139.785" y="61.748" clip-rule="evenodd"/><rect style="fill:#464646;fill-opacity:1;fill-rule:evenodd" id="rect3208" width="20.32" height="20.318" x="-165.187" y="10.951" clip-rule="evenodd"/><rect style="fill:#464646;fill-opacity:1;fill-rule:evenodd" id="rect3210" width="20.32" height="20.318" x="-165.187" y="36.35" clip-rule="evenodd"/><rect style="fill:#464646;fill-opacity:1;fill-rule:evenodd" id="rect3212" width="20.32" height="20.319" x="-165.187" y="61.748" clip-rule="evenodd"/></g><path style="fill:#464646;fill-opacity:1;fill-rule:evenodd" id="path3214" d="m -175.144,0.991 v 90.855 h 91.032 V 0.991 h -91.032 z m 84.395,84.217 h -77.757 V 7.63 h 77.757 v 77.578 z" clip-rule="evenodd"/></g><g style="opacity:.4;fill:#464646;fill-opacity:1" id="g3288" transform="matrix(0.27657836,0,0,0.27657836,373.31286,14.597384)"><g style="fill:#464646;fill-opacity:1" id="g3290"><rect id="rect3292" width="20.32" height="20.318" x="-114.388" y="10.951" clip-rule="evenodd" style="fill:#464646;fill-opacity:1;fill-rule:evenodd"/><rect id="rect3294" width="20.32" height="20.318" x="-114.388" y="36.35" clip-rule="evenodd" style="fill:#464646;fill-opacity:1;fill-rule:evenodd"/><rect id="rect3296" width="20.32" height="20.319" x="-114.388" y="61.748" clip-rule="evenodd" style="fill:#464646;fill-opacity:1;fill-rule:evenodd"/><rect id="rect3298" width="20.318" height="20.318" x="-139.785" y="10.951" clip-rule="evenodd" style="fill:#464646;fill-opacity:1;fill-rule:evenodd"/><rect id="rect3300" width="20.318" height="20.318" x="-139.785" y="36.35" clip-rule="evenodd" style="fill:#464646;fill-opacity:1;fill-rule:evenodd"/><rect id="rect3302" width="20.318" height="20.319" x="-139.785" y="61.748" clip-rule="evenodd" style="fill:#464646;fill-opacity:1;fill-rule:evenodd"/><rect id="rect3304" width="20.32" height="20.318" x="-165.187" y="10.951" clip-rule="evenodd" style="fill:#464646;fill-opacity:1;fill-rule:evenodd"/><rect id="rect3306" width="20.32" height="20.318" x="-165.187" y="36.35" clip-rule="evenodd" style="fill:#464646;fill-opacity:1;fill-rule:evenodd"/><rect id="rect3308" width="20.32" height="20.319" x="-165.187" y="61.748" clip-rule="evenodd" style="fill:#464646;fill-opacity:1;fill-rule:evenodd"/></g><path id="path3310" d="m -175.144,0.991 v 90.855 h 91.032 V 0.991 h -91.032 z m 84.395,84.217 h -77.757 V 7.63 h 77.757 v 77.578 z" clip-rule="evenodd" style="fill:#464646;fill-opacity:1;fill-rule:evenodd"/></g><g id="g3465" transform="matrix(0.25404736,0,0,0.25404736,140.09745,14.744984)" style="fill:#464646;fill-opacity:1"><g id="g3451" style="fill:#464646;fill-opacity:1"><path id="path3453" d="m 28.793,71.207 c -5.062,-5.065 -7.6,-11.705 -7.62,-18.356 l -6.515,-0.002 c 0.021,8.32 3.193,16.635 9.526,22.967 6.335,6.331 14.647,9.504 22.967,9.526 L 47.15,78.827 C 40.5,78.806 33.856,76.268 28.793,71.207 z" style="fill:#464646;fill-opacity:1"/><path id="path3455" d="M 18.423,81.575 C 10.501,73.654 6.535,63.251 6.514,52.85 L 0,52.846 c 0.02,12.074 4.623,24.145 13.815,33.34 9.193,9.188 21.261,13.796 33.337,13.812 V 93.483 C 36.745,93.467 26.346,89.495 18.423,81.575 z" style="fill:#464646;fill-opacity:1"/></g><path id="path3457" d="M 76.157,43.675 73.294,43.334 C 77.075,38.692 76.803,31.847 72.475,27.523 68.154,23.196 61.309,22.924 56.664,26.705 L 56.325,23.843 32.482,0 11.531,20.949 l 23.842,23.843 2.864,0.341 c -3.779,4.643 -3.506,11.485 0.819,15.811 4.325,4.325 11.167,4.596 15.81,0.819 L 55.205,64.625 79.05,88.466 100,67.519 76.157,43.675 z M 38.384,38.586 20.749,20.949 32.482,9.218 l 17.637,17.636 0.669,5.64 -6.762,6.761 -5.642,-0.669 z M 79.05,79.249 61.412,61.613 l -0.668,-5.64 6.761,-6.761 5.642,0.668 17.633,17.639 -11.73,11.73 z" style="fill:#464646;fill-opacity:1"/></g><g id="g4314" transform="matrix(0.24999998,0,0,0.24999998,200.32251,15.25725)" style="fill:#464646;fill-opacity:1"><path id="path4302" d="M 49.541,0 C 22.198,-0.019 0.027,22.376 0,49.978 0.027,77.621 22.198,100.01 49.541,100 76.894,100.011 99.064,77.621 99.085,49.979 99.064,22.376 76.894,-0.019 49.541,0 z m 0,88.483 C 28.503,88.483 11.445,71.252 11.462,49.971 11.441,28.742 28.503,11.514 49.541,11.52 70.589,11.514 87.65,28.742 87.673,49.978 87.65,71.251 70.589,88.483 49.541,88.483 z" style="fill:#464646;fill-opacity:1"/><path id="path4304" d="m 45.37,64.349 9.073,-0.041 v -7.015 c -0.023,-1.901 0.863,-3.704 3.242,-5.261 2.38,-1.563 9.016,-4.725 9.025,-13.061 C 66.7,30.67 59.73,24.955 53.868,23.72 48.014,22.529 41.665,23.324 37.169,28.281 c -4.042,4.396 -4.892,7.892 -4.905,15.603 h 9.07 v -1.799 c -0.014,-4.103 0.458,-8.438 6.312,-9.64 3.222,-0.631 6.226,0.375 8.018,2.103 2.024,2.007 2.042,6.496 -1.222,8.722 l -5.09,3.465 c -2.959,1.919 -3.977,4.038 -3.983,7.142 v 10.472 l 10e-4,0 z" style="fill:#464646;fill-opacity:1"/><polygon id="polygon4306" points="45.325 67.903 54.484 67.903 54.484 77.194 45.325 77.194" style="fill:#464646;fill-opacity:1"/></g><g id="g4319" transform="matrix(0.84510875,0,0,0.84510875,246.47145,2.7863074)" style="opacity:.4"><path style="fill:#464646;fill-opacity:1;stroke-width:20;stroke-miterlimit:4;stroke-dasharray:none" id="path4321" d="m 19.02918,27.70898 0,-1.42397 1.52567,0 1.52569,0 0,-4.78047 0,-4.78046 -1.6274,0 -1.62738,0 0,1.52568 0,1.52568 -1.52567,0 -1.52569,0 0,-3.05136 0,-3.05135 7.83182,0 7.83182,0 0,3.05135 0,3.05136 -1.52569,0 -1.52567,0 0,-1.52568 0,-1.52568 -1.62739,0 -1.62739,0 0,4.78046 0,4.78047 1.52568,0 1.52567,0 0,1.42397 0,1.42396 -4.57703,0 -4.57704,0 0,-1.42396 z"/><path style="fill:#464646;fill-opacity:1;stroke-width:20;stroke-miterlimit:4;stroke-dasharray:none" id="path4323" d="m 19.64356,39.48975 0,-5.51027 1.35498,0 1.35497,0 0,4.15529 0,4.15527 12.64649,0 12.6465,0 0,-9.8462 0,-9.84619 -5.60059,0 -5.60059,0 0,-1.26465 0,-1.26465 6.95558,0 6.95556,0 0,12.46582 0,12.46583 L 35,45 l -15.35644,0 0,-5.51025 z"/></g><g style="opacity:.4;fill:#464646;fill-opacity:1" id="g4325" transform="matrix(0.24999998,0,0,0.24999998,445.38927,15.676751)"><path style="fill:#464646;fill-opacity:1" id="path4327" d="M 49.541,0 C 22.198,-0.019 0.027,22.376 0,49.978 0.027,77.621 22.198,100.01 49.541,100 76.894,100.011 99.064,77.621 99.085,49.979 99.064,22.376 76.894,-0.019 49.541,0 z m 0,88.483 C 28.503,88.483 11.445,71.252 11.462,49.971 11.441,28.742 28.503,11.514 49.541,11.52 70.589,11.514 87.65,28.742 87.673,49.978 87.65,71.251 70.589,88.483 49.541,88.483 z"/><path style="fill:#464646;fill-opacity:1" id="path4329" d="m 45.37,64.349 9.073,-0.041 v -7.015 c -0.023,-1.901 0.863,-3.704 3.242,-5.261 2.38,-1.563 9.016,-4.725 9.025,-13.061 C 66.7,30.67 59.73,24.955 53.868,23.72 48.014,22.529 41.665,23.324 37.169,28.281 c -4.042,4.396 -4.892,7.892 -4.905,15.603 h 9.07 v -1.799 c -0.014,-4.103 0.458,-8.438 6.312,-9.64 3.222,-0.631 6.226,0.375 8.018,2.103 2.024,2.007 2.042,6.496 -1.222,8.722 l -5.09,3.465 c -2.959,1.919 -3.977,4.038 -3.983,7.142 v 10.472 l 10e-4,0 z"/><polygon style="fill:#464646;fill-opacity:1" id="polygon4331" points="45.325 67.903 54.484 67.903 54.484 77.194 45.325 77.194"/></g><g style="opacity:.4;fill:#464646;fill-opacity:1" id="g4333" transform="matrix(0.25404736,0,0,0.25404736,384.37987,15.991112)"><g style="fill:#464646;fill-opacity:1" id="g4335"><path style="fill:#464646;fill-opacity:1" id="path4337" d="m 28.793,71.207 c -5.062,-5.065 -7.6,-11.705 -7.62,-18.356 l -6.515,-0.002 c 0.021,8.32 3.193,16.635 9.526,22.967 6.335,6.331 14.647,9.504 22.967,9.526 L 47.15,78.827 C 40.5,78.806 33.856,76.268 28.793,71.207 z"/><path style="fill:#464646;fill-opacity:1" id="path4339" d="M 18.423,81.575 C 10.501,73.654 6.535,63.251 6.514,52.85 L 0,52.846 c 0.02,12.074 4.623,24.145 13.815,33.34 9.193,9.188 21.261,13.796 33.337,13.812 V 93.483 C 36.745,93.467 26.346,89.495 18.423,81.575 z"/></g><path style="fill:#464646;fill-opacity:1" id="path4341" d="M 76.157,43.675 73.294,43.334 C 77.075,38.692 76.803,31.847 72.475,27.523 68.154,23.196 61.309,22.924 56.664,26.705 L 56.325,23.843 32.482,0 11.531,20.949 l 23.842,23.843 2.864,0.341 c -3.779,4.643 -3.506,11.485 0.819,15.811 4.325,4.325 11.167,4.596 15.81,0.819 L 55.205,64.625 79.05,88.466 100,67.519 76.157,43.675 z M 38.384,38.586 20.749,20.949 32.482,9.218 l 17.637,17.636 0.669,5.64 -6.762,6.761 -5.642,-0.669 z M 79.05,79.249 61.412,61.613 l -0.668,-5.64 6.761,-6.761 5.642,0.668 17.633,17.639 -11.73,11.73 z"/></g><rect style="opacity:.8;fill:#464646;fill-opacity:1;stroke-width:20;stroke-miterlimit:4;stroke-dasharray:none" id="rect3039" width="250" height="60" x="490" y="0"/><g id="g3041" transform="matrix(0.84510875,0,0,0.84510875,492.46665,4.1596899)" style="fill:#fff"><path style="fill:#fff;fill-opacity:1;stroke-width:20;stroke-miterlimit:4;stroke-dasharray:none" id="path3043" d="m 19.02918,27.70898 0,-1.42397 1.52567,0 1.52569,0 0,-4.78047 0,-4.78046 -1.6274,0 -1.62738,0 0,1.52568 0,1.52568 -1.52567,0 -1.52569,0 0,-3.05136 0,-3.05135 7.83182,0 7.83182,0 0,3.05135 0,3.05136 -1.52569,0 -1.52567,0 0,-1.52568 0,-1.52568 -1.62739,0 -1.62739,0 0,4.78046 0,4.78047 1.52568,0 1.52567,0 0,1.42397 0,1.42396 -4.57703,0 -4.57704,0 0,-1.42396 z"/><path style="fill:#fff;fill-opacity:1;stroke-width:20;stroke-miterlimit:4;stroke-dasharray:none" id="path3045" d="m 19.64356,39.48975 0,-5.51027 1.35498,0 1.35497,0 0,4.15529 0,4.15527 12.64649,0 12.6465,0 0,-9.8462 0,-9.84619 -5.60059,0 -5.60059,0 0,-1.26465 0,-1.26465 6.95558,0 6.95556,0 0,12.46582 0,12.46583 L 35,45 l -15.35644,0 0,-5.51025 z"/></g><g style="fill:#fff;fill-opacity:1" id="g3047" transform="matrix(0.27873303,0,0,0.27873303,618.96272,15.125216)"><g style="fill:#fff;fill-opacity:1" id="g3049"><rect id="rect3051" width="20.32" height="20.318" x="-114.388" y="10.951" clip-rule="evenodd" style="fill:#fff;fill-opacity:1;fill-rule:evenodd"/><rect id="rect3053" width="20.32" height="20.318" x="-114.388" y="36.35" clip-rule="evenodd" style="fill:#fff;fill-opacity:1;fill-rule:evenodd"/><rect id="rect3055" width="20.32" height="20.319" x="-114.388" y="61.748" clip-rule="evenodd" style="fill:#fff;fill-opacity:1;fill-rule:evenodd"/><rect id="rect3057" width="20.318" height="20.318" x="-139.785" y="10.951" clip-rule="evenodd" style="fill:#fff;fill-opacity:1;fill-rule:evenodd"/><rect id="rect3059" width="20.318" height="20.318" x="-139.785" y="36.35" clip-rule="evenodd" style="fill:#fff;fill-opacity:1;fill-rule:evenodd"/><rect id="rect3061" width="20.318" height="20.319" x="-139.785" y="61.748" clip-rule="evenodd" style="fill:#fff;fill-opacity:1;fill-rule:evenodd"/><rect id="rect3063" width="20.32" height="20.318" x="-165.187" y="10.951" clip-rule="evenodd" style="fill:#fff;fill-opacity:1;fill-rule:evenodd"/><rect id="rect3065" width="20.32" height="20.318" x="-165.187" y="36.35" clip-rule="evenodd" style="fill:#fff;fill-opacity:1;fill-rule:evenodd"/><rect id="rect3067" width="20.32" height="20.319" x="-165.187" y="61.748" clip-rule="evenodd" style="fill:#fff;fill-opacity:1;fill-rule:evenodd"/></g><path id="path3069" d="m -175.144,0.991 v 90.855 h 91.032 V 0.991 h -91.032 z m 84.395,84.217 h -77.757 V 7.63 h 77.757 v 77.578 z" clip-rule="evenodd" style="fill:#fff;fill-opacity:1;fill-rule:evenodd"/></g><g style="fill:#fff;fill-opacity:1" id="g3071" transform="matrix(0.25404736,0,0,0.25404736,630.09747,15.002146)"><g style="fill:#fff;fill-opacity:1" id="g3073"><path style="fill:#fff;fill-opacity:1" id="path3075" d="m 28.793,71.207 c -5.062,-5.065 -7.6,-11.705 -7.62,-18.356 l -6.515,-0.002 c 0.021,8.32 3.193,16.635 9.526,22.967 6.335,6.331 14.647,9.504 22.967,9.526 L 47.15,78.827 C 40.5,78.806 33.856,76.268 28.793,71.207 z"/><path style="fill:#fff;fill-opacity:1" id="path3077" d="M 18.423,81.575 C 10.501,73.654 6.535,63.251 6.514,52.85 L 0,52.846 c 0.02,12.074 4.623,24.145 13.815,33.34 9.193,9.188 21.261,13.796 33.337,13.812 V 93.483 C 36.745,93.467 26.346,89.495 18.423,81.575 z"/></g><path style="fill:#fff;fill-opacity:1" id="path3079" d="M 76.157,43.675 73.294,43.334 C 77.075,38.692 76.803,31.847 72.475,27.523 68.154,23.196 61.309,22.924 56.664,26.705 L 56.325,23.843 32.482,0 11.531,20.949 l 23.842,23.843 2.864,0.341 c -3.779,4.643 -3.506,11.485 0.819,15.811 4.325,4.325 11.167,4.596 15.81,0.819 L 55.205,64.625 79.05,88.466 100,67.519 76.157,43.675 z M 38.384,38.586 20.749,20.949 32.482,9.218 l 17.637,17.636 0.669,5.64 -6.762,6.761 -5.642,-0.669 z M 79.05,79.249 61.412,61.613 l -0.668,-5.64 6.761,-6.761 5.642,0.668 17.633,17.639 -11.73,11.73 z"/></g><g style="fill:#fff;fill-opacity:1" id="g3081" transform="matrix(0.24999998,0,0,0.24999998,690.32253,15.514412)"><path style="fill:#fff;fill-opacity:1" id="path3083" d="M 49.541,0 C 22.198,-0.019 0.027,22.376 0,49.978 0.027,77.621 22.198,100.01 49.541,100 76.894,100.011 99.064,77.621 99.085,49.979 99.064,22.376 76.894,-0.019 49.541,0 z m 0,88.483 C 28.503,88.483 11.445,71.252 11.462,49.971 11.441,28.742 28.503,11.514 49.541,11.52 70.589,11.514 87.65,28.742 87.673,49.978 87.65,71.251 70.589,88.483 49.541,88.483 z"/><path style="fill:#fff;fill-opacity:1" id="path3085" d="m 45.37,64.349 9.073,-0.041 v -7.015 c -0.023,-1.901 0.863,-3.704 3.242,-5.261 2.38,-1.563 9.016,-4.725 9.025,-13.061 C 66.7,30.67 59.73,24.955 53.868,23.72 48.014,22.529 41.665,23.324 37.169,28.281 c -4.042,4.396 -4.892,7.892 -4.905,15.603 h 9.07 v -1.799 c -0.014,-4.103 0.458,-8.438 6.312,-9.64 3.222,-0.631 6.226,0.375 8.018,2.103 2.024,2.007 2.042,6.496 -1.222,8.722 l -5.09,3.465 c -2.959,1.919 -3.977,4.038 -3.983,7.142 v 10.472 l 10e-4,0 z"/><polygon style="fill:#fff;fill-opacity:1" id="polygon3087" points="45.325 77.194 45.325 67.903 54.484 67.903 54.484 77.194"/></g></svg>