<svg xmlns="http://www.w3.org/2000/svg" xmlns:svg="http://www.w3.org/2000/svg" id="Layer_1" width="1080" height="60" x="0" y="0" enable-background="new 0 0 100 100" version="1.1" viewBox="0 0 1080 60" xml:space="preserve"><metadata id="metadata51"/><path id="path6172" style="fill:#bbb;fill-opacity:1;stroke-width:20;stroke-miterlimit:4;stroke-dasharray:none"/><path id="path6178" style="fill:#bbb;fill-opacity:1;stroke-width:20;stroke-miterlimit:4;stroke-dasharray:none"/><path id="path6184" style="fill:#bbb;fill-opacity:1;stroke-width:20;stroke-miterlimit:4;stroke-dasharray:none"/><path id="path6186" style="fill:#bbb;fill-opacity:1;stroke-width:20;stroke-miterlimit:4;stroke-dasharray:none"/><path id="path6270" style="fill:#bbb;fill-opacity:1;stroke-width:20;stroke-miterlimit:4;stroke-dasharray:none"/><path id="path6288" style="fill:#bbb;fill-opacity:1;stroke-width:20;stroke-miterlimit:4;stroke-dasharray:none"/><path id="path6682" style="fill:#bbb;fill-opacity:1;stroke-width:20;stroke-miterlimit:4;stroke-dasharray:none"/><path id="path6684" style="fill:#bbb;fill-opacity:1;stroke-width:20;stroke-miterlimit:4;stroke-dasharray:none"/><g style="fill:#464646;fill-opacity:1" id="g3558" transform="translate(-1.07,-5e-7)"><path style="fill:#464646;fill-opacity:1" id="path3560" d="m 18,36 v 6 h 6 v -6 h -6 z m 4,4 h -2 v -2 h 2 v 2 z"/><path style="fill:#464646;fill-opacity:1" id="path3562" d="m 36,18 v 6 h 6 v -6 h -6 z m 4,4 h -2 v -2 h 2 v 2 z"/><polygon style="fill:#464646;fill-opacity:1" id="polygon3564" points="20.857 36.854 36.857 20.857 39.142 23.142 23.142 39.145"/></g><polygon style="fill:#464646;fill-opacity:1" id="polygon3566" points="100 24.565 97.904 39.396 83.07 42 76 28.773 86.463 18" transform="translate(-1.07,-5e-7)"/><rect style="fill:#464646;fill-opacity:1" id="rect3568" width="20" height="20" x="138.93" y="20"/><path style="fill:#464646;fill-opacity:1" id="path3570" d="m 219.93,30 c 0,6.078 -4.926,11 -11,11 -6.074,0 -11,-4.922 -11,-11 0,-6.074 4.926,-11 11,-11 6.074,0 11,4.926 11,11 z"/><path style="fill:#464646;fill-opacity:1" id="path3572" d="m 268.93,19 c -4.971,0 -9,4.028999 -9,9 0,4.971 5.001,12 9,14 4.001,-2 9,-9.029 9,-14 0,-4.971001 -4.029,-9 -9,-9 z m 0,12.5 c -2.484,0 -4.5,-2.014 -4.5,-4.5 0,-2.484001 2.016,-4.5 4.5,-4.5 2.485,0 4.5,2.015999 4.5,4.5 0,2.486 -2.015,4.5 -4.5,4.5 z"/><g style="fill:#464646;fill-opacity:1" id="g3574" transform="translate(-1.07,-5e-7)"><path style="fill:#464646;fill-opacity:1" id="path3576" d="m 337,30.156 v 0.407 5.604 c 0,1.658 -1.344,3 -3,3 h -10 c -1.655,0 -3,-1.342 -3,-3 v -10 c 0,-1.657 1.345,-3 3,-3 h 6.345 l 3.19,-3.17 H 324 c -3.313,0 -6,2.687 -6,6 v 10 c 0,3.313 2.687,6 6,6 h 10 c 3.314,0 6,-2.687 6,-6 v -8.809 l -3,2.968"/><polygon style="fill:#464646;fill-opacity:1" id="polygon3578" points="335.891 21.809 338.719 24.637 329.828 33.529 327 33.529 327 30.699"/><rect style="fill:#464646;fill-opacity:1" id="rect3580" width="4" height="4" x="338.697" y="17.826" transform="matrix(-0.707,-0.7072,0.7072,-0.707,567.5655,274.7729)"/></g><g style="fill:#464646;fill-opacity:1" id="g3582" transform="translate(-1.07,-5e-7)"><path style="fill:#464646;fill-opacity:1" id="path3584" d="m 381,42 h 18 V 24 h -18 v 18 z m 14,-16 h 2 v 14 h -2 V 26 z m -4,0 h 2 v 14 h -2 V 26 z m -4,0 h 2 v 14 h -2 V 26 z m -4,0 h 2 v 14 h -2 V 26 z"/><path style="fill:#464646;fill-opacity:1" id="path3586" d="m 395,20 v -2 -2 h -10 v 2 2 h -6 v 2 h 22 v -2 h -6 z m -2,0 h -6 v -2 h 6 v 2 z"/></g><g style="opacity:.4;fill:#464646;fill-opacity:1" id="g3588" transform="translate(-1.07,-5e-7)"><path style="fill:#464646;fill-opacity:1" id="path3590" d="m 458,30.156 v 0.407 5.604 c 0,1.658 -1.344,3 -3,3 h -10 c -1.655,0 -3,-1.342 -3,-3 v -10 c 0,-1.657 1.345,-3 3,-3 h 6.345 l 3.19,-3.17 H 445 c -3.313,0 -6,2.687 -6,6 v 10 c 0,3.313 2.687,6 6,6 h 10 c 3.314,0 6,-2.687 6,-6 v -8.809 l -3,2.968"/><polygon style="fill:#464646;fill-opacity:1" id="polygon3592" points="456.891 21.809 459.719 24.637 450.828 33.529 448 33.529 448 30.699"/><rect style="fill:#464646;fill-opacity:1" id="rect3594" width="4" height="4" x="459.697" y="17.826" transform="matrix(-0.707,-0.7072,0.7072,-0.707,774.118,360.3402)"/></g><g style="opacity:.4;fill:#464646;fill-opacity:1" id="g3596" transform="translate(-1.07,-5e-7)"><path style="fill:#464646;fill-opacity:1" id="path3598" d="m 501,42 h 18 V 24 h -18 v 18 z m 14,-16 h 2 v 14 h -2 V 26 z m -4,0 h 2 v 14 h -2 V 26 z m -4,0 h 2 v 14 h -2 V 26 z m -4,0 h 2 v 14 h -2 V 26 z"/><path style="fill:#464646;fill-opacity:1" id="path3600" d="m 515,20 v -2 -2 h -10 v 2 2 h -6 v 2 h 22 v -2 h -6 z m -2,0 h -6 v -2 h 6 v 2 z"/></g><rect style="opacity:.4;fill:#464646;fill-opacity:1;stroke-width:20;stroke-miterlimit:4;stroke-dasharray:none" id="rect3684" width="540" height="60" x="542" y="2"/><path style="opacity:.8;fill:#464646;fill-opacity:1;stroke-width:20;stroke-miterlimit:4;stroke-dasharray:none" id="path3686" d="m 542.50845,29.920029 0,-29.0322577 268.74579,0 268.74576,0 0,29.0322577 0,29.032258 -268.74576,0 -268.74579,0 0,-29.032258 z"/><g id="g3654" transform="translate(540,-1.0000005)" style="fill:#fff;fill-opacity:1"><path id="path3656" d="m 18,36 v 6 h 6 v -6 h -6 z m 4,4 h -2 v -2 h 2 v 2 z" style="fill:#fff;fill-opacity:1"/><path id="path3658" d="m 36,18 v 6 h 6 v -6 h -6 z m 4,4 h -2 v -2 h 2 v 2 z" style="fill:#fff;fill-opacity:1"/><polygon id="polygon3660" points="36.857 20.857 39.142 23.142 23.142 39.145 20.857 36.854" style="fill:#fff;fill-opacity:1"/></g><polygon id="polygon3662" points="100 24.565 97.904 39.396 83.07 42 76 28.773 86.463 18" transform="translate(540,-1.0000005)" style="fill:#fff;fill-opacity:1"/><rect id="rect3664" width="20" height="20" x="680" y="19" style="fill:#fff;fill-opacity:1"/><path id="path3666" d="m 761,29 c 0,6.078001 -4.926,11 -11,11 -6.074,0 -11,-4.921999 -11,-11 0,-6.073999 4.926,-10.999999 11,-10.999999 6.074,0 11,4.926 11,10.999999 z" style="fill:#fff;fill-opacity:1"/><path id="path3668" d="m 810,18.000001 c -4.971,0 -9,4.028999 -9,8.999999 0,4.971001 5.001,12 9,14 4.001,-2 9,-9.028999 9,-14 0,-4.971 -4.029,-8.999999 -9,-8.999999 z M 810,30.5 c -2.484,0 -4.5,-2.013999 -4.5,-4.5 0,-2.483999 2.016,-4.5 4.5,-4.5 2.485,0 4.5,2.016001 4.5,4.5 0,2.486001 -2.015,4.5 -4.5,4.5 z" style="fill:#fff;fill-opacity:1"/><g id="g3670" transform="translate(540,-1.0000005)" style="fill:#fff;fill-opacity:1"><path id="path3672" d="m 337,30.156 v 0.407 5.604 c 0,1.658 -1.344,3 -3,3 h -10 c -1.655,0 -3,-1.342 -3,-3 v -10 c 0,-1.657 1.345,-3 3,-3 h 6.345 l 3.19,-3.17 H 324 c -3.313,0 -6,2.687 -6,6 v 10 c 0,3.313 2.687,6 6,6 h 10 c 3.314,0 6,-2.687 6,-6 v -8.809 l -3,2.968" style="fill:#fff;fill-opacity:1"/><polygon id="polygon3674" points="335.891 21.809 338.719 24.637 329.828 33.529 327 33.529 327 30.699" style="fill:#fff;fill-opacity:1"/><rect id="rect3676" width="4" height="4" x="338.697" y="17.826" transform="matrix(-0.707,-0.7072,0.7072,-0.707,567.5655,274.7729)" style="fill:#fff;fill-opacity:1"/></g><g id="g3678" transform="translate(540,-1.0000005)" style="fill:#fff;fill-opacity:1"><path id="path3680" d="m 381,42 h 18 V 24 h -18 v 18 z m 14,-16 h 2 v 14 h -2 V 26 z m -4,0 h 2 v 14 h -2 V 26 z m -4,0 h 2 v 14 h -2 V 26 z m -4,0 h 2 v 14 h -2 V 26 z" style="fill:#fff;fill-opacity:1"/><path id="path3682" d="m 395,20 v -2 -2 h -10 v 2 2 h -6 v 2 h 22 v -2 h -6 z m -2,0 h -6 v -2 h 6 v 2 z" style="fill:#fff;fill-opacity:1"/></g></svg>